<svg width="12" height="17" viewBox="0 0 12 17" fill="none" xmlns="http://www.w3.org/2000/svg">
<path d="M1 16H0.5V16.5H1V16ZM11.4348 16V16.5H11.9348V16H11.4348ZM1.5 14.6957C1.5 12.0903 3.61205 9.97827 6.21739 9.97827V8.97827C3.05976 8.97827 0.5 11.538 0.5 14.6957H1.5ZM6.21739 9.97827C8.82273 9.97827 10.9348 12.0903 10.9348 14.6957H11.9348C11.9348 11.538 9.37502 8.97827 6.21739 8.97827V9.97827ZM0.5 14.6957V16H1.5V14.6957H0.5ZM1 16.5H11.4348V15.5H1V16.5ZM11.9348 16V14.6957H10.9348V16H11.9348ZM9.63059 4.91304C9.63059 6.79801 8.10251 8.32609 6.21752 8.32609V9.32609C8.65479 9.32609 10.6306 7.3503 10.6306 4.91304H9.63059ZM6.21752 8.32609C4.33253 8.32609 2.80444 6.79801 2.80444 4.91304H1.80444C1.80444 7.3503 3.78025 9.32609 6.21752 9.32609V8.32609ZM2.80444 4.91304C2.80444 3.02808 4.33253 1.5 6.21752 1.5V0.5C3.78025 0.5 1.80444 2.47578 1.80444 4.91304H2.80444ZM6.21752 1.5C8.10251 1.5 9.63059 3.02808 9.63059 4.91304H10.6306C10.6306 2.47578 8.65479 0.5 6.21752 0.5V1.5Z" fill="black"/>
</svg>
