<svg width="16" height="16" viewBox="0 0 16 16" fill="none" xmlns="http://www.w3.org/2000/svg">
<path fill-rule="evenodd" clip-rule="evenodd" d="M8 0C12.4183 0 16 3.58172 16 8C16 12.4183 12.4183 16 8 16C3.58172 16 0 12.4183 0 8C0 3.58172 3.58172 0 8 0ZM8 1.23077C4.26146 1.23077 1.23077 4.26146 1.23077 8C1.23077 11.7385 4.26146 14.7692 8 14.7692C11.7385 14.7692 14.7692 11.7385 14.7692 8C14.7692 4.26146 11.7385 1.23077 8 1.23077ZM7.92206 10.4687C8.18023 10.4687 8.4005 10.5578 8.58287 10.7361C8.76523 10.9143 8.85641 11.1305 8.85641 11.3846C8.85641 11.6714 8.7642 11.8968 8.57979 12.0608C8.39538 12.2247 8.18023 12.3066 7.93435 12.3066C7.68437 12.3066 7.46615 12.2257 7.27969 12.0638C7.09323 11.902 7 11.6755 7 11.3846C7 11.1305 7.08913 10.9143 7.2674 10.7361C7.44566 10.5578 7.66388 10.4687 7.92206 10.4687ZM7.97123 3C8.32367 3 8.5593 3.12192 8.67815 3.36575C8.79699 3.60958 8.85641 3.96099 8.85641 4.41997C8.85641 4.69044 8.84207 4.96501 8.81338 5.24368L8.54906 8.27417L8.53198 8.44749C8.49897 8.72467 8.44319 8.94352 8.36465 9.10403C8.27039 9.29663 8.11467 9.39294 7.89747 9.39294C7.67618 9.39294 7.5225 9.29971 7.43644 9.11325C7.35038 8.92679 7.28891 8.643 7.25203 8.26188L7.05532 5.31744L7.04236 5.10988C7.01412 4.64328 7 4.30061 7 4.08188C7 3.74174 7.08913 3.4764 7.2674 3.28584C7.44566 3.09528 7.68027 3 7.97123 3Z" fill="#000000"/>
</svg>
