<svg width="16" height="16" viewBox="0 0 16 16" fill="none" xmlns="http://www.w3.org/2000/svg">
<path fill-rule="evenodd" clip-rule="evenodd" d="M0.999106 7.99986C0.999106 8.13247 1.05178 8.25964 1.14555 8.35341C1.23932 8.44718 1.3665 8.49986 1.49911 8.49986H13.2921L10.1451 11.6459C10.0986 11.6923 10.0617 11.7475 10.0366 11.8083C10.0114 11.869 9.99847 11.9341 9.99847 11.9999C9.99847 12.0656 10.0114 12.1307 10.0366 12.1914C10.0617 12.2522 10.0986 12.3074 10.1451 12.3539C10.1916 12.4003 10.2468 12.4372 10.3075 12.4624C10.3683 12.4875 10.4334 12.5005 10.4991 12.5005C10.5649 12.5005 10.63 12.4875 10.6907 12.4624C10.7514 12.4372 10.8066 12.4003 10.8531 12.3539L14.8531 8.35386C14.8997 8.30741 14.9366 8.25224 14.9618 8.19149C14.987 8.13074 15 8.06562 15 7.99986C15 7.93409 14.987 7.86897 14.9618 7.80822C14.9366 7.74748 14.8997 7.6923 14.8531 7.64586L10.8531 3.64586C10.8066 3.59937 10.7514 3.56249 10.6907 3.53733C10.63 3.51217 10.5649 3.49923 10.4991 3.49923C10.4334 3.49923 10.3683 3.51217 10.3075 3.53733C10.2468 3.56249 10.1916 3.59937 10.1451 3.64586C10.0986 3.69234 10.0617 3.74753 10.0366 3.80827C10.0114 3.86901 9.99847 3.93411 9.99847 3.99986C9.99847 4.0656 10.0114 4.1307 10.0366 4.19144C10.0617 4.25218 10.0986 4.30737 10.1451 4.35386L13.2921 7.49986H1.49911C1.3665 7.49986 1.23932 7.55254 1.14555 7.6463C1.05178 7.74007 0.999106 7.86725 0.999106 7.99986Z" fill="#000000"/>
</svg>
