<svg width="16" height="16" viewBox="0 0 16 16" fill="none" xmlns="http://www.w3.org/2000/svg">
<path fill-rule="evenodd" clip-rule="evenodd" d="M14.9999 7.9999C14.9999 7.86729 14.9472 7.74011 14.8535 7.64635C14.7597 7.55258 14.6325 7.4999 14.4999 7.4999H2.70692L5.85392 4.3539C5.9004 4.30741 5.93728 4.25222 5.96244 4.19148C5.9876 4.13074 6.00055 4.06564 6.00055 3.9999C6.00055 3.93416 5.9876 3.86906 5.96244 3.80832C5.93728 3.74758 5.9004 3.69239 5.85392 3.6459C5.80743 3.59941 5.75224 3.56254 5.6915 3.53738C5.63076 3.51222 5.56566 3.49927 5.49992 3.49927C5.43417 3.49927 5.36907 3.51222 5.30833 3.53738C5.24759 3.56254 5.1924 3.59941 5.14592 3.6459L1.14592 7.6459C1.09935 7.69234 1.06241 7.74752 1.0372 7.80827C1.012 7.86901 0.999023 7.93413 0.999023 7.9999C0.999023 8.06567 1.012 8.13079 1.0372 8.19153C1.06241 8.25228 1.09935 8.30745 1.14592 8.3539L5.14592 12.3539C5.1924 12.4004 5.24759 12.4373 5.30833 12.4624C5.36907 12.4876 5.43417 12.5005 5.49992 12.5005C5.56566 12.5005 5.63076 12.4876 5.6915 12.4624C5.75224 12.4373 5.80743 12.4004 5.85392 12.3539C5.9004 12.3074 5.93728 12.2522 5.96244 12.1915C5.9876 12.1307 6.00055 12.0656 6.00055 11.9999C6.00055 11.9342 5.9876 11.8691 5.96244 11.8083C5.93728 11.7476 5.9004 11.6924 5.85392 11.6459L2.70692 8.4999H14.4999C14.6325 8.4999 14.7597 8.44722 14.8535 8.35345C14.9472 8.25968 14.9999 8.13251 14.9999 7.9999Z" fill="none"/>
</svg>
