<svg width="16" height="16" viewBox="0 0 16 16" fill="none" xmlns="http://www.w3.org/2000/svg">
<path fill-rule="evenodd" clip-rule="evenodd" d="M13.0145 3.08222L13.0286 3.08235L13.0427 3.08222H13.4857C14.1169 3.08222 14.6286 3.57508 14.6286 4.18306V5.72438H1.37142V4.18306C1.37142 3.57508 1.8831 3.08222 2.51428 3.08222H2.95732C2.962 3.08231 2.9667 3.08235 2.9714 3.08235C2.9761 3.08235 2.98079 3.08231 2.98547 3.08222H7.98591L7.99999 3.08235L8.01406 3.08222H13.0145ZM3.65711 1.76138H7.31427V0.660504C7.31427 0.295718 7.62128 0 7.99999 0C8.3787 0 8.68571 0.295718 8.68571 0.660504V1.76138H12.3429V0.660504C12.3429 0.295718 12.6499 0 13.0286 0C13.4073 0 13.7143 0.295718 13.7143 0.660504V1.77126C14.9958 1.8825 16 2.9199 16 4.18323V5.72438V7.04539V12.99C16 14.3275 14.8743 15.4118 13.4857 15.4118H2.51429C1.12568 15.4118 0 14.3275 0 12.99V7.04539V5.72438V4.18323C0 2.91991 1.00421 1.88251 2.28568 1.77126V0.660504C2.28568 0.295718 2.59269 0 2.9714 0C3.35011 0 3.65711 0.295718 3.65711 0.660504V1.76138ZM1.37142 12.9898V7.04539H14.6286V12.9898C14.6286 13.5978 14.1169 14.0906 13.4857 14.0906H2.51428C1.8831 14.0906 1.37142 13.5978 1.37142 12.9898Z" fill="#000000"/>
</svg>
