<svg width="16" height="16" viewBox="0 0 16 16" fill="none" xmlns="http://www.w3.org/2000/svg">
<path fill-rule="evenodd" clip-rule="evenodd" d="M12.5 4H14.5C15.35 4 16 4.65 16 5.5V13.5C16 14.35 15.35 15 14.5 15H1.5C0.65 15 0 14.35 0 13.5V5.5C0 4.65 0.65 4 1.5 4H3.5C3.71372 4 4.0515 3.54887 4.40622 3.07513C4.79837 2.55138 5.21122 2 5.5 2H10.5C10.75 2 11.125 2.5 11.5 3C11.875 3.5 12.25 4 12.5 4ZM14 14C14.55 14 15 13.55 15 13V6C15 5.45 14.55 5 14 5H11.9501C11.731 5 11.3815 4.52594 11.0228 4.03943C10.6448 3.52664 10.2566 3 10 3H6C5.71122 3 5.29837 3.55138 4.90622 4.07513C4.5515 4.54887 4.21372 5 4 5H2C1.45 5 1 5.45 1 6V13C1 13.55 1.45 14 2 14H14ZM4.5 9C4.5 7.05 6.04992 5.5 8 5.5C9.95 5.5 11.5 7.05 11.5 9C11.5 10.95 9.95 12.5 8 12.5C6.05 12.5 4.5 10.95 4.5 9ZM5.5 9C5.5 10.4 6.6 11.5 8 11.5C9.4 11.5 10.5 10.4 10.5 9C10.5 7.6 9.4 6.5 8 6.5C6.6 6.5 5.5 7.6 5.5 9Z" fill="#000000"/>
</svg>
