<svg width="16" height="16" viewBox="0 0 16 16" fill="none" xmlns="http://www.w3.org/2000/svg">
<path fill-rule="evenodd" clip-rule="evenodd" d="M8 16C12.4183 16 16 12.4183 16 8C16 3.58172 12.4183 0 8 0C3.58172 0 0 3.58172 0 8C0 12.4183 3.58172 16 8 16ZM7.99998 14.7692C4.26144 14.7692 1.23075 11.7385 1.23075 7.99994C1.23075 4.2614 4.26144 1.23071 7.99998 1.23071C11.7385 1.23071 14.7692 4.2614 14.7692 7.99994C14.7692 11.7385 11.7385 14.7692 7.99998 14.7692ZM11 5.40003C11.2 5.20003 11.7 5.10003 12 5.40003C12.2 5.60003 12.2 5.70003 12.2 5.90003C12.2 6.10003 12.1 6.30003 12 6.40003L7.70001 10.6C7.60001 10.7 7.40001 10.8 7.20001 10.8C7.14642 10.7732 7.09283 10.7536 7.04309 10.7354C6.90719 10.6857 6.80001 10.6464 6.80001 10.5L5.00001 8.70003C4.90001 8.60003 4.80001 8.40003 4.80001 8.20003C4.80001 8.00003 4.90001 7.80003 5.00001 7.70003C5.30001 7.40003 5.80001 7.50003 6.10001 7.80003L7.30001 9.00003L11 5.40003Z" fill="#000000"/>
</svg>
