<svg width="16" height="16" viewBox="0 0 16 16" fill="none" xmlns="http://www.w3.org/2000/svg">
<path fill-rule="evenodd" clip-rule="evenodd" d="M8 16C12.4183 16 16 12.4183 16 8C16 3.58172 12.4183 0 8 0C3.58172 0 0 3.58172 0 8C0 12.4183 3.58172 16 8 16ZM8 14.7692C4.26146 14.7692 1.23077 11.7385 1.23077 8C1.23077 4.26146 4.26146 1.23077 8 1.23077C11.7385 1.23077 14.7692 4.26146 14.7692 8C14.7692 11.7385 11.7385 14.7692 8 14.7692ZM8 3.93905C8.33987 3.93905 8.61539 4.21457 8.61539 4.55444V8.56561L10.6139 10.5642C10.8543 10.8045 10.8543 11.1941 10.6139 11.4345C10.3736 11.6748 9.98399 11.6748 9.74366 11.4345L7.56486 9.25566C7.44945 9.14025 7.38462 8.98372 7.38462 8.82051V4.55444C7.38462 4.21457 7.66013 3.93905 8 3.93905Z" fill="none"/>
</svg>
