<svg width="16" height="16" viewBox="0 0 16 16" fill="none" xmlns="http://www.w3.org/2000/svg">
<path fill-rule="evenodd" clip-rule="evenodd" d="M9.20403 8L13.7506 12.5466C14.0831 12.8791 14.0831 13.4182 13.7506 13.7506C13.4182 14.0831 12.8791 14.0831 12.5466 13.7506L8 9.20403L3.4534 13.7506C3.12091 14.0831 2.58185 14.0831 2.24936 13.7506C1.91688 13.4182 1.91688 12.8791 2.24936 12.5466L6.79597 8L2.24936 3.4534C1.91688 3.12091 1.91688 2.58185 2.24936 2.24936C2.58185 1.91688 3.12091 1.91688 3.4534 2.24936L8 6.79597L12.5466 2.24936C12.8791 1.91688 13.4182 1.91688 13.7506 2.24936C14.0831 2.58185 14.0831 3.12091 13.7506 3.4534L9.20403 8Z" fill="#000000"/>
</svg>
