<svg width="16" height="16" viewBox="0 0 16 16" fill="none" xmlns="http://www.w3.org/2000/svg">
<path fill-rule="evenodd" clip-rule="evenodd" d="M7.66667 3.30317C5.34667 3.30317 3.452 5.0885 3.33867 7.32344C3.324 7.61013 3.12133 7.85122 2.83733 7.92289C1.972 8.13791 1.33333 8.90678 1.33333 9.819C1.33333 10.9006 2.22867 11.7737 3.33333 11.7737H4.66667C5.03467 11.7737 5.33333 12.067 5.33333 12.4253C5.33333 12.7837 5.03467 13.0769 4.66667 13.0769H3.33333C1.49267 13.0769 0 11.6174 0 9.819C0 8.46371 0.846 7.30389 2.048 6.8152C2.41267 4.0981 4.78867 2 7.66667 2C9.73133 2 11.5373 3.08163 12.5273 4.69104C14.5087 5.08199 16 6.78914 16 8.84162C16 11.1808 14.06 13.0769 11.6667 13.0769H11.3333C10.9653 13.0769 10.6667 12.7837 10.6667 12.4253C10.6667 12.067 10.9653 11.7737 11.3333 11.7737H11.6667C13.3233 11.7737 14.6667 10.4641 14.6667 8.84162C14.6667 7.34298 13.5127 6.10497 12.0247 5.92905C11.806 5.90298 11.614 5.77267 11.5127 5.58371C10.7887 4.22841 9.33733 3.30317 7.66667 3.30317Z" fill="none"/>
<path fill-rule="evenodd" clip-rule="evenodd" d="M8.63404 11.9354L9.98522 13.2606C10.0951 13.3683 10.0272 13.6097 9.83363 13.7996C9.64 13.9895 9.39395 14.056 9.28406 13.9482L7.93287 12.623L6.58166 13.9483C6.47176 14.0561 6.22571 13.9895 6.03209 13.7996C5.83847 13.6097 5.7706 13.3684 5.88049 13.2606L7.23171 11.9354L5.88049 10.6101C5.77059 10.5023 5.83846 10.261 6.03208 10.0711C6.2257 9.88123 6.47175 9.81466 6.58165 9.92244L7.93287 11.2477L9.28406 9.92247C9.39396 9.81469 9.64001 9.88126 9.83363 10.0712C10.0273 10.2611 10.0951 10.5024 9.98523 10.6102L8.63404 11.9354Z" fill="none"/>
</svg>
