<svg width="16" height="16" viewBox="0 0 16 16" fill="none" xmlns="http://www.w3.org/2000/svg">
<path fill-rule="evenodd" clip-rule="evenodd" d="M3.10228 16H12.8928L12.8928 15.9999C14.0557 15.9973 14.9981 15.0486 15 13.878V4.35183C14.9988 3.87059 14.8062 3.40997 14.4657 3.07184L11.8938 0.511869C11.5615 0.18312 11.1136 -0.000623397 10.647 1.58916e-06H3.10228C1.94117 0.00512154 1.00186 0.95316 1 2.1219V13.8781C1.00191 15.0469 1.9412 15.995 3.10228 16ZM2.51336 1.52703C2.66927 1.3689 2.88112 1.28015 3.10228 1.28015L10.647 1.28017C10.7769 1.28204 10.9017 1.33517 10.9937 1.42767L13.5637 3.98764C13.6625 4.08139 13.7202 4.21201 13.7227 4.34889V13.8782C13.7246 14.1014 13.6376 14.3151 13.4817 14.4732C13.3258 14.6314 13.1139 14.7201 12.8928 14.7201H3.10228C2.88112 14.7201 2.66928 14.6314 2.51336 14.4732C2.35743 14.3151 2.27046 14.1014 2.27232 13.8782V2.12203C2.27046 1.8989 2.35744 1.68515 2.51336 1.52703ZM4.73236 5.3581H11.2626V5.36621C11.6161 5.36621 11.9025 5.07809 11.9025 4.72248C11.9025 4.36686 11.6161 4.07811 11.2626 4.07811H4.73236C4.38137 4.07811 4.09622 4.36499 4.09622 4.71811C4.09622 5.07185 4.38137 5.3581 4.73236 5.3581ZM11.2626 8.64009H4.73236C4.38137 8.64009 4.09622 8.35383 4.09622 8.00009C4.09622 7.64635 4.38137 7.3601 4.73236 7.3601H11.2626C11.6136 7.3601 11.8988 7.64635 11.8988 8.00009C11.8988 8.35383 11.6136 8.64009 11.2626 8.64009ZM4.73236 11.9294H11.2626C11.6136 11.9294 11.8988 11.6431 11.8988 11.2894C11.8988 10.9363 11.6136 10.6494 11.2626 10.6494H4.73236C4.38137 10.6494 4.09622 10.9363 4.09622 11.2894C4.09622 11.6431 4.38137 11.9294 4.73236 11.9294Z" fill="none"/>
</svg>
