<svg width="16" height="16" viewBox="0 0 16 16" fill="none" xmlns="http://www.w3.org/2000/svg">
<path fill-rule="evenodd" clip-rule="evenodd" d="M2.60823 3.9919H3.66433C3.92058 5.01565 4.88058 5.80006 5.98433 5.80006C7.08807 5.80006 8.03249 5.03194 8.30433 3.9919H14.0806C14.4169 3.9919 14.6725 3.73565 14.6725 3.40003C14.6725 3.06378 14.4163 2.80816 14.0806 2.80816H8.28817C8.03191 1.78442 7.07191 1 5.96817 1C4.86442 1 3.92001 1.75187 3.66449 2.80816H2.60823C2.27197 2.80816 2.01636 3.06442 2.01636 3.40003C2.01636 3.73629 2.28823 3.9919 2.60823 3.9919ZM5.96807 1.97622C6.75181 1.97622 7.39181 2.61622 7.39181 3.39997C7.39181 4.18371 6.75181 4.82371 5.96807 4.82371C5.18433 4.82371 4.54433 4.18371 4.54433 3.39997C4.54433 2.61622 5.18433 1.97622 5.96807 1.97622ZM14.0644 7.57647H13.0564C12.8001 6.5521 11.8401 5.76831 10.7364 5.76831C9.63264 5.76831 8.68823 6.53644 8.41639 7.57647H2.60823C2.27197 7.57647 2.01636 7.83273 2.01636 8.16834C2.01636 8.5046 2.27261 8.76021 2.60823 8.76021H8.43191C8.68816 9.78458 9.64816 10.5684 10.7362 10.5684C11.8243 10.5684 12.7844 9.80025 13.0562 8.76021H14.0644C14.4006 8.76021 14.6562 8.50396 14.6562 8.16834C14.6562 7.83209 14.3844 7.57647 14.0644 7.57647ZM10.7364 9.59215C9.95261 9.59215 9.31261 8.95215 9.31261 8.16841C9.31261 7.38466 9.95261 6.74466 10.7364 6.74466C11.5201 6.74466 12.1601 7.38466 12.1601 8.16841C12.1601 8.95215 11.5364 9.59215 10.7364 9.59215ZM8.28813 12.3445H14.0644C14.3844 12.3445 14.6563 12.6002 14.6563 12.9364C14.6563 13.272 14.4007 13.5283 14.0644 13.5283H8.28813C8.01629 14.5683 7.07187 15.3364 5.96813 15.3364C4.86438 15.3364 3.90438 14.552 3.64813 13.5283H2.59187C2.25626 13.5283 2 13.2727 2 12.9364C2 12.6008 2.25562 12.3445 2.59187 12.3445H3.64813C3.91997 11.3045 4.86438 10.5364 5.96813 10.5364C7.07187 10.5364 8.03187 11.3208 8.28813 12.3445ZM4.54438 12.9365C4.54438 13.7202 5.18438 14.3602 5.96813 14.3602C6.76813 14.3602 7.3925 13.7202 7.39187 12.9365C7.39187 12.1527 6.75187 11.5127 5.96813 11.5127C5.18438 11.5127 4.54438 12.1527 4.54438 12.9365Z" fill="#000000"/>
</svg>
