<svg width="16" height="16" viewBox="0 0 16 16" fill="none" xmlns="http://www.w3.org/2000/svg">
<path fill-rule="evenodd" clip-rule="evenodd" d="M3.30139 1H15.4105C15.7303 1 16 1.26974 16 1.58947V10.7856C16 11.1053 15.7474 11.3751 15.4105 11.3751H13.2881V13.4632C13.2881 13.7829 13.0355 14.0526 12.6986 14.0526H0.589474C0.269743 14.0526 0 13.8 0 13.4632V4.28421C0 3.96448 0.252632 3.69474 0.589474 3.69474H2.71192V1.58947C2.71192 1.26974 2.96455 1 3.30139 1ZM12.1091 11.0554V4.89086L1.19609 4.89096V10.2633L3.80662 7.90536C4.0257 7.70339 4.37898 7.70339 4.59806 7.90536L7.52825 10.5666L9.19535 9.40475C9.398 9.25343 9.68418 9.25343 9.88615 9.40475L12.1091 11.0554ZM4.19402 9.15124L1.19596 11.8632V12.8908H4.22754L6.53474 11.2737L4.19402 9.15124ZM9.51579 10.6172L6.29861 12.8737L12.1091 12.8745V12.5205L9.51579 10.6172ZM13.2881 10.1789H14.8039L14.8045 2.19613H3.89069V3.71192H12.6986C13.0183 3.71192 13.2881 3.96455 13.2881 4.30139V10.1789ZM7.73026 8.59607C8.34474 8.59607 8.84211 8.09803 8.84211 7.48422C8.84211 6.87039 8.34473 6.37303 7.73026 6.37303C7.11643 6.37303 6.61907 6.87039 6.61907 7.48422C6.61907 8.09805 7.11645 8.59607 7.73026 8.59607Z" fill="#000000"/>
</svg>
