<svg width="16" height="16" viewBox="0 0 16 16" fill="none" xmlns="http://www.w3.org/2000/svg">
<path fill-rule="evenodd" clip-rule="evenodd" d="M8 0C12.4183 0 16 3.58172 16 8C16 12.4183 12.4183 16 8 16C3.58172 16 0 12.4183 0 8C0 3.58172 3.58172 0 8 0ZM8 1.23077C4.26146 1.23077 1.23077 4.26146 1.23077 8C1.23077 11.7385 4.26146 14.7692 8 14.7692C11.7385 14.7692 14.7692 11.7385 14.7692 8C14.7692 4.26146 11.7385 1.23077 8 1.23077ZM7.82027 11.1721C7.90322 11.1676 7.98014 11.1857 8.05253 11.2234C8.12794 11.2475 8.19279 11.2898 8.24708 11.3486C8.3059 11.4029 8.34813 11.4677 8.37226 11.5431C8.3974 11.5914 8.41315 11.6417 8.41996 11.6944L8.42354 11.7754V11.8961C8.42203 12.0046 8.39488 12.1072 8.34059 12.2007C8.30892 12.2414 8.27725 12.2821 8.24558 12.3229C8.17017 12.3983 8.08119 12.4495 7.97863 12.4782C7.92585 12.4842 7.87155 12.4918 7.81877 12.4993C7.73582 12.5038 7.6589 12.4857 7.58651 12.448C7.5111 12.4239 7.44625 12.3817 7.39196 12.3229C7.33314 12.2686 7.29091 12.2037 7.26678 12.1283C7.24164 12.08 7.22589 12.0298 7.21908 11.977L7.2155 11.8961V11.7754C7.2155 11.6668 7.24265 11.5658 7.29845 11.4708C7.33012 11.43 7.36179 11.3893 7.39347 11.3486C7.46887 11.2732 7.55785 11.2219 7.66041 11.1933C7.71319 11.1872 7.76749 11.1797 7.82027 11.1721ZM8.53364 3.5891C9.28018 3.78214 9.95282 4.30698 10.3087 4.9932C10.5063 5.37476 10.6164 5.78347 10.636 6.2133C10.6571 6.66122 10.5531 7.09407 10.3751 7.50127C10.2213 7.85418 9.97393 8.18447 9.67984 8.43482C9.51696 8.57357 9.34352 8.70328 9.15349 8.80281C9.04591 8.85912 8.93699 8.90671 8.83298 8.96525L8.706 9.047L8.728 9.033L8.71165 9.04719C8.68205 9.0744 8.65351 9.10266 8.62608 9.13204L8.595 9.168L8.56838 9.20611C8.54531 9.24174 8.5238 9.27816 8.50392 9.31548L8.48 9.365L8.46772 9.3996C8.45543 9.43803 8.44477 9.47685 8.43566 9.51612L8.427 9.555L8.41985 9.65805C8.41784 9.71933 8.41801 9.78088 8.41868 9.84233L8.42052 10.0259C8.42052 10.3638 8.14453 10.6141 7.81726 10.6292C7.52111 10.6429 7.26485 10.3936 7.2207 10.1114L7.21399 10.0259V9.68358C7.2155 9.16326 7.41307 8.67311 7.76146 8.28853C7.92434 8.11057 8.13096 7.95372 8.34964 7.85116C8.4713 7.79385 8.58826 7.73453 8.70054 7.66516L8.815 7.586L8.88856 7.5244C8.93514 7.4815 8.97988 7.43675 9.02278 7.39017L9.094 7.305L9.05093 7.36704C9.08261 7.32632 9.11428 7.2856 9.14595 7.24488L9.093 7.305L9.16153 7.20925C9.19605 7.15534 9.22823 7.10016 9.25805 7.04374L9.308 6.937L9.34754 6.83075C9.36731 6.76836 9.38441 6.70524 9.39882 6.64151L9.419 6.528L9.42898 6.41456C9.43166 6.34971 9.43166 6.28469 9.42898 6.21967L9.419 6.104L9.432 6.171L9.42288 6.10471L9.41289 6.02478L9.418 6.095L9.39988 5.99104C9.38569 5.92731 9.36871 5.86436 9.34899 5.80213L9.307 5.689L9.25962 5.58954C9.22985 5.53318 9.19778 5.4781 9.16349 5.42442L9.096 5.328L9.143 5.383L9.10146 5.32876C9.08562 5.3084 9.06979 5.28804 9.05395 5.26768L9.093 5.325L9.0258 5.24456L8.89157 5.11033L8.753 4.993L8.81 5.042L8.71171 4.97264C8.65803 4.93835 8.60295 4.90628 8.54659 4.87651L8.438 4.825L8.33366 4.78747C8.27127 4.76792 8.20815 4.75111 8.14442 4.73692L8.035 4.717L7.91641 4.70715C7.85133 4.70447 7.7862 4.70447 7.72113 4.70715L7.607 4.716L7.49317 4.73731C7.42949 4.75172 7.36649 4.76882 7.30432 4.78859L7.205 4.824L7.26527 4.79563C7.21701 4.81523 7.16875 4.83635 7.12049 4.85596L7.202 4.825L7.09245 4.87802C7.03609 4.90779 6.98101 4.93985 6.92733 4.97415L6.825 5.045L6.74747 5.11184C6.70088 5.15474 6.65614 5.19948 6.61324 5.24607L6.543 5.328L6.58509 5.26919L6.53758 5.33027L6.497 5.383L6.542 5.33L6.47555 5.42593C6.44126 5.47961 6.40919 5.53468 6.37942 5.59104L6.326 5.701L6.28999 5.80291C6.27022 5.86508 6.25313 5.92809 6.23872 5.99177L6.214 6.125L6.20975 6.17107L6.20503 6.31736C6.20353 6.6567 5.93055 6.90705 5.60328 6.92214C5.27902 6.93722 4.9985 6.63408 5.00001 6.31887C5.00152 5.84983 5.11916 5.39135 5.33935 4.97661C5.54898 4.57996 5.86268 4.2542 6.22464 3.99479C6.88069 3.52425 7.75844 3.39002 8.53364 3.5891Z" fill="#000000"/>
</svg>
