<svg width="16" height="16" viewBox="0 0 16 16" fill="none" xmlns="http://www.w3.org/2000/svg">
<path fill-rule="evenodd" clip-rule="evenodd" d="M8.39185 2.46048C8.15852 2.29049 7.84186 2.29049 7.60786 2.46048L3.33324 5.56978V13.351C3.33324 13.719 3.63191 14.0177 3.9999 14.0177H5.33322V10.0177C5.33322 8.91308 6.22854 8.01775 7.3332 8.01775H8.66651C9.77117 8.01775 10.6665 8.91308 10.6665 10.0177V14.0177H11.9998C12.3678 14.0177 12.6665 13.719 12.6665 13.351V5.56978L8.39185 2.46048ZM13.9998 6.5391L14.9411 7.22376C15.2384 7.44043 15.6558 7.37443 15.8724 7.07643C16.0891 6.7791 16.0231 6.36177 15.7251 6.14511L9.17651 1.3825C8.47452 0.872501 7.52519 0.872501 6.8232 1.3825L0.27461 6.14511C-0.023387 6.36177 -0.0887197 6.7791 0.127278 7.07643C0.343942 7.37443 0.761271 7.44043 1.0586 7.22376L1.99992 6.5391V13.351C1.99992 14.4557 2.89525 15.351 3.9999 15.351H11.9998C13.1045 15.351 13.9998 14.4557 13.9998 13.351V6.5391ZM9.33317 14.0177V10.0177C9.33317 9.64974 9.03451 9.35107 8.66651 9.35107H7.3332C6.9652 9.35107 6.66654 9.64974 6.66654 10.0177V14.0177H9.33317Z" fill="none"/>
</svg>
