<svg width="16" height="17" viewBox="0 0 16 17" fill="none" xmlns="http://www.w3.org/2000/svg">
<path d="M13.825 16.125H3.15833C2.83833 16.125 2.625 15.9117 2.625 15.5917V1.725C2.625 1.405 2.83833 1.19167 3.15833 1.19167H5.825V0.658333C5.825 0.338333 6.03833 0.125 6.35833 0.125H10.625C10.945 0.125 11.1583 0.338333 11.1583 0.658333V1.19167H13.825C14.145 1.19167 14.3583 1.405 14.3583 1.725V15.5917C14.3583 15.9117 14.145 16.125 13.825 16.125ZM3.69167 15.0583H13.2917V2.25833H11.1583V2.79167C11.1583 3.11167 10.945 3.325 10.625 3.325H6.35833C6.03833 3.325 5.825 3.11167 5.825 2.79167V2.25833H3.69167V15.0583ZM6.89167 2.25833H10.0917V1.19167H6.89167V2.25833Z" fill="#000000"/>
</svg>
