<svg width="16" height="16" viewBox="0 0 16 16" fill="none" xmlns="http://www.w3.org/2000/svg">
<path fill-rule="evenodd" clip-rule="evenodd" d="M8 14C11.3137 14 14 11.3137 14 8C14 4.68629 11.3137 2 8 2C4.68629 2 2 4.68629 2 8C2 11.3137 4.68629 14 8 14ZM8 16C12.4183 16 16 12.4183 16 8C16 3.58172 12.4183 0 8 0C3.58172 0 0 3.58172 0 8C0 12.4183 3.58172 16 8 16Z" fill="none" fill-opacity="0.1"/>
<path fill-rule="evenodd" clip-rule="evenodd" d="M10.9348 1.64492C10.7032 2.14632 10.1098 2.35609 9.57697 2.21094C8.65779 1.96056 7.68727 1.93139 6.74628 2.13245C5.47747 2.40356 4.33072 3.07865 3.47797 4.0565C2.62522 5.03436 2.11242 6.26228 2.01644 7.55618C1.92047 8.85008 2.2465 10.1402 2.94565 11.2332C3.6448 12.3262 4.6794 13.163 5.89432 13.6184C7.10925 14.0737 8.43904 14.123 9.68432 13.7587C10.9296 13.3945 12.0233 12.6365 12.8014 11.5982C13.3784 10.8282 13.7588 9.93487 13.9169 8.99541C14.0085 8.45078 14.4477 8.00001 15 8.00001C15.5523 8.00001 16.0065 8.44946 15.9376 8.99743C15.7651 10.3704 15.2384 11.6812 14.4018 12.7976C13.3644 14.1819 11.9061 15.1927 10.2458 15.6783C8.58539 16.164 6.81233 16.0983 5.19243 15.4912C3.57253 14.8841 2.19306 13.7682 1.26086 12.3109C0.328663 10.8536 -0.106041 9.13344 0.0219236 7.40824C0.149889 5.68304 0.833628 4.04581 1.97063 2.742C3.10763 1.4382 4.63663 0.53808 6.32837 0.176603C7.69268 -0.11491 9.10355 -0.0434447 10.4223 0.375535C10.9487 0.542762 11.1663 1.14351 10.9348 1.64492Z" fill="#651282"/>
</svg>
