<svg width="16" height="16" viewBox="0 0 16 16" fill="none" xmlns="http://www.w3.org/2000/svg">
<path d="M8.38452 0C6.14027 0 4.32164 1.83797 4.32164 4.10157V5.12696H4.12817C2.948 5.12696 2 6.07497 2 7.25514V13.8718C2 15.052 2.948 16 4.12817 16H12.4474C13.6276 16 14.5756 15.052 14.5756 13.8718V7.25514C14.5756 6.07497 13.6276 5.12696 12.4474 5.12696V4.10157C12.4474 1.83797 10.6288 0 8.38452 0ZM5.48247 4.10157C5.48247 2.47642 6.77872 1.16082 8.38452 1.16082C9.99033 1.16082 11.2866 2.47642 11.2866 4.10157V5.12696H5.48247V4.10157ZM13.4148 7.25514V13.8718C13.4148 14.4135 12.9891 14.8392 12.4474 14.8392H4.12817C3.58646 14.8392 3.16082 14.4135 3.16082 13.8718V7.25514C3.16082 6.71342 3.58646 6.28779 4.12817 6.28779H12.4474C12.9891 6.28779 13.4148 6.73277 13.4148 7.25514Z" fill="#000000"/>
<path d="M8.28817 10.157C7.95928 10.157 7.70776 10.4085 7.70776 10.7374V11.8982C7.70776 12.2271 7.95928 12.4786 8.28817 12.4786C8.61707 12.4786 8.86859 12.2271 8.86859 11.8982V10.7374C8.86859 10.4278 8.61707 10.157 8.28817 10.157Z" fill="#000000"/>
</svg>
