<svg width="16" height="16" viewBox="0 0 16 16" fill="none" xmlns="http://www.w3.org/2000/svg">
<path fill-rule="evenodd" clip-rule="evenodd" d="M1.72748 0H1.72836H1.72935H8.9985C9.40098 0 9.72723 0.322483 9.72723 0.727476C9.72723 1.12871 9.40098 1.45433 8.9985 1.45433H2.45495V14.5444H9.0003C9.40215 14.5444 9.72777 14.8701 9.72777 15.2719C9.72777 15.6738 9.32592 15.9994 9.0003 15.9994H1.7573C1.74741 15.9998 1.73747 16 1.72748 16C1.70533 16 1.68343 15.9988 1.66179 15.9964C1.30624 15.9643 1.0246 15.6765 1.00208 15.3183C1.0007 15.3029 1 15.2876 1 15.2725V0.727476C1 0.325619 1.32562 0 1.72748 0ZM4.99804 8.72721C4.59743 8.72721 4.27308 8.4041 4.27308 7.99973C4.27308 7.59787 4.60057 7.27225 4.99804 7.27225H13.3894L11.0314 4.91426C10.7471 4.63053 10.7471 4.16992 11.0314 3.88555C11.3152 3.60181 11.7758 3.60181 12.0595 3.88555L15.6594 7.48541C15.9431 7.76976 15.9431 8.22974 15.6594 8.51412V8.51407L12.0595 12.1139C11.7758 12.3977 11.3152 12.3977 11.0314 12.1139C10.7471 11.8296 10.7471 11.369 11.0314 11.0852L13.3895 8.72721H4.99804Z" fill="none"/>
</svg>
