<svg width="16" height="16" viewBox="0 0 16 16" fill="none" xmlns="http://www.w3.org/2000/svg">
<path fill-rule="evenodd" clip-rule="evenodd" d="M8.08861 0C10.697 0 12.8749 1.98895 13.1111 4.58658L13.4728 8.56511C13.5045 8.91437 13.7147 9.22234 14.0284 9.37918L14.0312 9.3806C14.7336 9.73177 15.1772 10.4496 15.1772 11.2349V11.5443C15.1772 12.551 14.3611 13.3671 13.3544 13.3671L10.316 13.367L10.3165 13.7722C10.3165 14.9491 9.40386 15.9128 8.24771 15.9944L8.08861 16C6.8582 16 5.86076 15.0026 5.86076 13.7722L5.86 13.367L2.82278 13.3671C1.81609 13.3671 1 12.551 1 11.5443V11.2349C1 10.4496 1.44365 9.73177 2.146 9.3806L2.14884 9.37918C2.46251 9.22234 2.67271 8.91437 2.70446 8.56511L3.06615 4.58658C3.3023 1.98895 5.48026 0 8.08861 0ZM9.101 13.367H7.075L7.07595 13.7722C7.07595 14.2941 7.4709 14.7239 7.97827 14.7789L8.08861 14.7848C8.64788 14.7848 9.10127 14.3314 9.10127 13.7722L9.101 13.367ZM8.08861 1.21519C6.10876 1.21519 4.45559 2.72489 4.27635 4.6966L3.91466 8.67513C3.84481 9.4435 3.38238 10.121 2.69229 10.4661C2.39879 10.6128 2.21519 10.9099 2.21519 11.2349V11.5443C2.21519 11.8799 2.48722 12.1519 2.82278 12.1519H13.3544C13.69 12.1519 13.962 11.8799 13.962 11.5443V11.2349C13.962 10.9099 13.7784 10.6128 13.4878 10.4675C12.7948 10.121 12.3324 9.4435 12.2626 8.67513L11.9009 4.6966C11.7216 2.72489 10.0685 1.21519 8.08861 1.21519Z" fill="none"/>
</svg>
