<svg width="16" height="16" viewBox="0 0 16 16" fill="none" xmlns="http://www.w3.org/2000/svg">
<path d="M11.5946 6.15967C11.5946 5.47914 11.3928 4.8139 11.0148 4.24806C10.6367 3.68223 10.0993 3.24121 9.47058 2.98079C8.84186 2.72036 8.15003 2.65222 7.48258 2.78498C6.81513 2.91775 6.20204 3.24545 5.72084 3.72666C5.23963 4.20786 4.91193 4.82095 4.77916 5.4884C4.6464 6.15585 4.71454 6.84768 4.97496 7.4764C5.23539 8.10513 5.67641 8.64251 6.24224 9.02059C6.80808 9.39867 7.47332 9.60047 8.15385 9.60047C9.0664 9.60047 9.94158 9.23796 10.5869 8.59268C11.2321 7.94741 11.5946 7.07222 11.5946 6.15967ZM8.15385 8.43607C7.70362 8.43607 7.2635 8.30256 6.88915 8.05243C6.51479 7.80229 6.22302 7.44677 6.05073 7.03081C5.87843 6.61485 5.83335 6.15714 5.92119 5.71556C6.00902 5.27399 6.22583 4.86837 6.54419 4.55001C6.86255 4.23165 7.26817 4.01484 7.70974 3.92701C8.15132 3.83917 8.60903 3.88425 9.02499 4.05655C9.44094 4.22885 9.79647 4.52062 10.0466 4.89497C10.2967 5.26932 10.4302 5.70944 10.4302 6.15967C10.4287 6.76293 10.1884 7.34105 9.76181 7.76763C9.33523 8.1942 8.75711 8.43453 8.15385 8.43607ZM12.9628 14.2581H10.3254C12.2234 12.5755 14.3077 9.30937 14.3077 6.15385C14.3077 4.52175 13.6593 2.95649 12.5053 1.80242C11.3512 0.64835 9.78595 0 8.15385 0C6.52174 0 4.95649 0.64835 3.80242 1.80242C2.64835 2.95649 2 4.52175 2 6.15385C2 9.30937 4.08427 12.558 5.98224 14.2581H3.34488C3.19047 14.2581 3.04239 14.3194 2.9332 14.4286C2.82402 14.5378 2.76268 14.6859 2.76268 14.8403C2.76268 14.9947 2.82402 15.1428 2.9332 15.2519C3.04239 15.3611 3.19047 15.4225 3.34488 15.4225H12.9628C13.1172 15.4225 13.2653 15.3611 13.3745 15.2519C13.4837 15.1428 13.545 14.9947 13.545 14.8403C13.545 14.6859 13.4837 14.5378 13.3745 14.4286C13.2653 14.3194 13.1172 14.2581 12.9628 14.2581ZM3.1644 6.15967C3.1644 4.83638 3.69007 3.5673 4.62577 2.6316C5.56148 1.69589 6.83056 1.17022 8.15385 1.17022C9.47713 1.17022 10.7462 1.69589 11.6819 2.6316C12.6176 3.5673 13.1433 4.83638 13.1433 6.15967C13.1433 10.1477 9.20763 14.2639 8.15385 14.2639C7.10007 14.2639 3.1644 10.1477 3.1644 6.15967Z" fill="#000000"/>
</svg>
