<svg width="16" height="16" viewBox="0 0 16 16" fill="none" xmlns="http://www.w3.org/2000/svg">
<path fill-rule="evenodd" clip-rule="evenodd" d="M7.99978 0C11.3019 0 14 2.79495 14 6.217C14 9.59049 11.4884 12.5301 8.97663 14.6026C8.32569 15.1325 7.442 15.1325 6.83735 14.6026C4.37202 12.5786 2 9.44586 2 6.217C2 2.79555 4.69749 0 8.00022 0L7.99978 0ZM7.99978 3.22885C9.62771 3.22885 10.9302 4.57835 10.9302 6.21715C10.9302 7.9039 9.62773 9.25341 7.99978 9.25341C6.41814 9.25341 5.11569 7.90391 5.11569 6.21715C5.11569 4.57837 6.41813 3.22885 7.99978 3.22885Z" fill="#000000"/>
</svg>
