<svg width="16" height="16" viewBox="0 0 16 16" fill="none" xmlns="http://www.w3.org/2000/svg">
<path d="M6.95241 1.75668e-06C6.72967 -0.000663096 6.51956 0.187509 6.46305 0.367016L6.01624 1.93085C5.7024 2.03391 5.40121 2.15558 5.11198 2.30319L3.69175 1.51596C3.49894 1.40758 3.2363 1.44415 3.08004 1.60106L1.60664 3.07979C1.45238 3.23471 1.41581 3.49469 1.52153 3.68618L2.30877 5.11171C2.16249 5.39828 2.03883 5.69948 1.93643 6.01064L0.372594 6.45745C0.159163 6.51729 -0.00107533 6.73073 0.000252331 6.95213V9.04779C0.00158204 9.26788 0.161157 9.47731 0.372594 9.53716L1.9311 9.97866C2.03416 10.2918 2.16183 10.5944 2.30877 10.8829L1.52153 12.3084C1.41582 12.4999 1.45238 12.7599 1.60664 12.9148L3.08004 14.3936C3.23629 14.5505 3.49892 14.587 3.69175 14.4787L5.11198 13.6914C5.40121 13.839 5.70242 13.966 6.01624 14.0691L6.46305 15.6276C6.52289 15.839 6.73233 15.9993 6.95241 16H9.04808C9.26816 15.998 9.47759 15.839 9.53744 15.6276L9.98425 14.0691C10.2981 13.966 10.5993 13.839 10.8885 13.6914L12.3087 14.4787C12.5016 14.587 12.7642 14.5505 12.9204 14.3936L14.3938 12.9148C14.5481 12.7599 14.5847 12.4999 14.479 12.3084L13.6917 10.8829C13.8387 10.5944 13.9663 10.2918 14.0694 9.97866L15.6279 9.53716C15.8393 9.47732 15.9996 9.26788 16.0002 9.04779V6.95213C16.0016 6.73071 15.8413 6.51728 15.6279 6.45745L14.0641 6.01064C13.9617 5.69948 13.838 5.39827 13.6917 5.11171L14.479 3.68618C14.5847 3.49469 14.5481 3.23472 14.3938 3.07979L12.9204 1.60106C12.7642 1.44415 12.5016 1.40758 12.3087 1.51596L10.8885 2.30319C10.5993 2.15559 10.2981 2.03391 9.98425 1.93085L9.53744 0.367016C9.47627 0.156904 9.26684 1.75668e-06 9.04808 1.75668e-06H6.95241ZM7.33539 1.02128H8.66518L9.07475 2.46278C9.12129 2.63233 9.26159 2.77262 9.43114 2.81918C9.86132 2.93753 10.2669 3.10708 10.6492 3.32451C10.8002 3.41161 10.9963 3.4136 11.1492 3.32983L12.4684 2.59578L13.4046 3.53195L12.6705 4.8458C12.5854 4.99739 12.5854 5.19421 12.6705 5.3458C12.8879 5.72811 13.0628 6.13903 13.1811 6.56921C13.227 6.73742 13.3647 6.87705 13.5322 6.9256L14.979 7.33517V8.65963L13.5322 9.07452C13.366 9.12173 13.2283 9.25936 13.1811 9.42559C13.0628 9.85577 12.8879 10.2667 12.6705 10.649C12.5854 10.8006 12.5854 10.9974 12.6705 11.149L13.4046 12.4682L12.4684 13.399L11.1492 12.665C10.9963 12.5812 10.8002 12.5832 10.6492 12.6703C10.2669 12.8877 9.86132 13.0626 9.43114 13.1809C9.26292 13.2268 9.12329 13.3644 9.07475 13.532L8.66518 14.9788H7.33539L6.92582 13.532C6.87729 13.3644 6.73765 13.2268 6.56943 13.1809C6.13925 13.0626 5.73365 12.8877 5.35135 12.6703C5.20042 12.5832 5.00427 12.5812 4.85135 12.665L3.5322 13.399L2.59602 12.4682L3.33007 11.149C3.41517 10.9974 3.41517 10.8006 3.33007 10.649C3.11265 10.2667 2.93778 9.85577 2.81943 9.42559C2.77222 9.25937 2.63459 9.12173 2.46836 9.07452L1.02155 8.65963V7.33517L2.46836 6.9256C2.63592 6.87706 2.77355 6.73743 2.81943 6.56921C2.93778 6.13903 3.11265 5.72811 3.33007 5.3458C3.41517 5.1942 3.41517 4.99739 3.33007 4.8458L2.59602 3.53195L3.5322 2.59578L4.85135 3.32983C5.00427 3.4136 5.20042 3.41161 5.35135 3.32451C5.73367 3.10709 6.13925 2.93754 6.56943 2.81918C6.73898 2.77263 6.87927 2.63233 6.92582 2.46278L7.33539 1.02128ZM8.00028 4.25533C5.93848 4.25533 4.25559 5.93818 4.25559 8.00003C4.25559 10.0619 5.93843 11.7447 8.00028 11.7447C10.0621 11.7447 11.745 10.0619 11.745 8.00003C11.745 5.93818 10.0621 4.25533 8.00028 4.25533ZM8.00028 5.27661C9.51026 5.27661 10.7237 6.49005 10.7237 8.00003C10.7237 9.51001 9.51026 10.7234 8.00028 10.7234C6.4903 10.7234 5.27686 9.51001 5.27686 8.00003C5.27686 6.49005 6.4903 5.27661 8.00028 5.27661Z" fill="none"/>
</svg>
