<svg width="16" height="16" viewBox="0 0 16 16" fill="none" xmlns="http://www.w3.org/2000/svg">
<path d="M8 0C5.87833 0 3.84367 0.8431 2.34317 2.34317C0.843167 3.84382 0 5.87833 0 8C0 10.1217 0.8431 12.1563 2.34317 13.6568C3.84382 15.1568 5.87833 16 8 16C10.1217 16 12.1563 15.1569 13.6568 13.6568C15.1568 12.1562 16 10.1217 16 8C15.998 5.87883 15.1543 3.84567 13.6543 2.34567C12.1544 0.845667 10.1212 0.002 8 0ZM4.66667 13.765V13.3334C4.66667 12.1426 5.30208 11.0424 6.33333 10.4467C7.36458 9.851 8.63533 9.851 9.66667 10.4467C10.6979 11.0424 11.3333 12.1427 11.3333 13.3334V13.765C10.3216 14.3555 9.17117 14.6667 8 14.6667C6.82883 14.6667 5.67833 14.3555 4.66667 13.765ZM6 6.66667C6 5.85742 6.48698 5.12825 7.23437 4.819C7.98177 4.5091 8.84243 4.68033 9.41403 5.2526C9.9863 5.82422 10.1575 6.6849 9.84763 7.43227C9.53838 8.17967 8.80922 8.66663 7.99997 8.66663C6.89515 8.66663 5.99997 7.77145 5.99997 6.66663L6 6.66667ZM12.6315 12.7852C12.4492 11.2513 11.5195 9.90683 10.1485 9.19533C10.8497 8.60418 11.2761 7.75067 11.3282 6.83533C11.3803 5.91997 11.0528 5.0235 10.4232 4.35683C9.79303 3.69082 8.91672 3.31322 8.00007 3.31322C7.08342 3.31322 6.20707 3.69082 5.5769 4.35683C4.94735 5.0235 4.61987 5.91998 4.67195 6.83533C4.72403 7.7507 5.15047 8.60417 5.85163 9.19533C4.48053 9.90692 3.5508 11.2513 3.36863 12.7852C2.08738 11.5475 1.3543 9.84833 1.33413 8.067C1.3133 6.28567 2.00667 4.57033 3.2593 3.30333C4.51125 2.0364 6.21897 1.3235 8.00013 1.3235C9.7813 1.3235 11.4891 2.03638 12.741 3.30333C13.9936 4.57027 14.687 6.28583 14.6661 8.067C14.646 9.84833 13.9129 11.5475 12.6316 12.7852H12.6315Z" fill="none"/>
</svg>
