<svg width="16" height="16" viewBox="0 0 16 16" fill="none" xmlns="http://www.w3.org/2000/svg">
<path fill-rule="evenodd" clip-rule="evenodd" d="M8.44444 10.6667C9.91489 10.6667 11.1111 9.49057 11.1111 8.04523V2.62144C11.1111 1.1761 9.91489 0 8.44444 0C6.974 0 5.77778 1.1761 5.77778 2.62144V8.04506C5.77778 9.49057 6.974 10.6667 8.44444 10.6667ZM6.66667 2.61226C6.66667 1.66205 7.46424 0.888889 8.44445 0.888889C9.42466 0.888889 10.2222 1.66205 10.2222 2.61226V8.05441C10.2222 9.00462 9.42466 9.77778 8.44445 9.77778C7.46424 9.77778 6.66667 9.00462 6.66667 8.05441V2.61226ZM11.9018 5.78789C11.9018 5.53682 12.123 5.33351 12.3957 5.33351C12.6684 5.33351 12.8896 5.53682 12.8889 5.78772V8.51369C12.8889 10.6145 11.1573 12.3497 8.93819 12.5765V15.0912H10.6039C10.8769 15.0912 11.0979 15.2947 11.0979 15.5456C11.0979 15.7967 10.8767 16 10.6039 16H6.28495C6.01203 16 5.79102 15.7965 5.79102 15.5456C5.79102 15.2945 6.01222 15.0912 6.28495 15.0912H7.9507V12.5764C5.73158 12.3497 4 10.6145 4 8.51352V5.78772C4 5.53665 4.2212 5.33333 4.49393 5.33333C4.76685 5.33333 4.98786 5.53682 4.98786 5.78772V8.51369C4.98786 10.2672 6.53869 11.6939 8.44482 11.6939C10.351 11.6939 11.9018 10.2672 11.9018 8.51369V5.78789Z" fill="#000000"/>
</svg>
